<svg width="96" height="60" viewBox="0 0 96 60" fill="none" xmlns="http://www.w3.org/2000/svg">
<path d="M94.7508 47.6915C92.9363 43.2307 91.8622 38.5664 91.0664 33.8388C90.3185 29.3966 89.7176 24.9295 88.9685 20.4873C88.5577 18.0514 87.888 15.6637 86.6183 13.5131C84.967 10.7163 82.505 8.71715 79.7504 7.12797C74.6161 4.16625 69.0085 2.37151 63.3266 0.802099C59.9114 -0.141524 56.4658 -0.295697 53.01 0.570839C50.7563 1.13575 48.512 1.73979 46.2662 2.33712C44.8304 2.719 43.3749 3.04276 41.8917 2.82969C40.0135 2.56008 38.146 2.2035 36.2837 1.83586C33.7109 1.32787 31.1892 0.493357 28.5129 0.690621C25.858 0.886303 23.6802 1.86353 22.2878 4.28604C21.5842 5.51033 20.7244 6.64371 19.9586 7.83361C19.6436 8.32302 19.2906 8.8227 19.1269 9.36903C18.439 11.6702 17.7931 13.9848 17.176 16.3061C16.5846 18.5313 16.1359 20.8004 15.0599 22.8664C13.8415 25.2058 12.2745 26.9433 9.27241 26.7116C6.80761 26.5215 4.41791 24.7714 3.89609 22.3517C3.17701 19.0175 4.26967 16.2428 6.82975 14.0618C7.77851 13.2534 8.91781 12.8356 10.2208 13.2151C10.6786 13.3483 10.9909 13.019 10.8707 12.5146C10.8086 12.2541 10.6446 11.9912 10.4599 11.7911C9.2147 10.4415 7.59231 10.1458 6.08971 11.2092C1.99817 14.1041 -0.227465 18.0289 0.0184224 23.1253C0.213314 27.1722 2.37847 29.9117 6.0399 31.4938C8.94944 32.7509 12.0211 32.7695 15.1116 32.5196C15.7608 32.467 16.4071 32.382 17.055 32.3117C17.0752 32.3639 17.095 32.4164 17.1151 32.4686C16.6735 32.8699 16.232 33.2715 15.7418 33.7174C16.819 34.1784 18.1686 34.2404 19.1439 33.6981C20.0171 33.2122 20.8473 32.6094 21.5929 31.9425C23.0425 30.6462 24.1051 29.029 24.9918 27.3168C25.4362 26.4594 26.0386 25.9016 26.9443 25.645C27.8373 25.392 28.7288 25.128 29.6317 24.9141C30.5069 24.7066 31.4553 24.2832 32.2621 24.4579C33.0828 24.6358 33.7702 25.4276 34.5158 25.9514C34.5652 25.9862 34.6336 26.0139 34.6577 26.0625C34.7491 26.2487 34.8957 26.4424 34.8945 26.6322C34.8914 27.1156 34.8522 27.6042 34.7708 28.0814C34.1245 31.8638 33.4453 35.641 32.8148 39.4262C32.1277 43.5502 31.3944 47.6694 30.8449 51.8123C30.3792 55.3235 30.637 54.982 28.1722 57.3483C27.7709 57.7338 27.2127 58.105 27.3566 58.7426C27.5187 59.4617 28.2287 59.5641 28.8268 59.7451C28.9035 59.7685 28.9845 59.7863 29.0644 59.791C30.4164 59.8669 31.7688 59.9906 33.1211 59.995C33.8999 59.9974 34.7024 59.889 35.4523 59.6803C36.5161 59.3838 36.8687 58.5224 36.4766 57.4859C36.405 57.2969 36.3374 57.106 36.2532 56.9226C35.9987 56.3695 36.0516 55.8505 36.2963 55.2911C36.8308 54.07 37.3566 52.8413 37.8021 51.5858C39.9388 45.5655 42.8803 39.9551 46.3872 34.631C46.5232 34.4243 46.8157 34.176 47.0245 34.1855C48.1902 34.2389 49.4232 34.1539 50.5009 34.5128C52.583 35.2062 54.6011 36.1115 56.601 37.0266C58.8559 38.0588 61.1401 38.8024 63.6701 38.6771C65.0399 38.6091 66.429 38.6478 67.7929 38.7933C70.1256 39.0424 71.8034 40.2133 72.4936 42.5571C72.7158 43.3114 72.9529 44.0649 73.117 44.8326C73.5645 46.9262 73.8365 49.0803 74.8509 50.9968C75.681 52.5646 76.6507 54.0601 77.5888 55.569C78.1652 56.4964 78.1905 56.8071 77.5805 57.7207C77.4908 57.8555 77.392 57.984 77.2963 58.1149C76.6306 59.0229 76.8781 59.6768 78.0265 59.7997C79.2911 59.9349 80.5763 60.0539 81.8393 59.9744C83.0142 59.9005 84.2009 59.6495 85.3284 59.302C86.2562 59.0158 86.3546 58.6371 86.1202 57.7006C85.6794 55.9367 85.2082 54.1799 84.7888 52.4108C84.078 49.4123 83.4716 46.3755 83.7704 43.2893C83.9697 41.2304 84.4678 39.1926 84.9338 37.1686C85.7182 33.7617 86.5902 30.3746 86.8752 26.8753C86.9132 26.4108 86.9417 25.9451 86.9745 25.4802C87.1417 25.602 87.1907 25.7245 87.218 25.8518C87.9908 29.4646 88.6826 33.0972 89.5527 36.6863C90.5248 40.6964 92.0701 44.4934 94.3305 47.9714C94.7523 48.6201 95.2208 49.2384 95.6679 49.8709C95.4141 49.1052 95.0445 48.4138 94.7508 47.6915Z" fill="white"/>
<path d="M50.833 51.062C49.9637 49.5001 49.3739 47.8623 49.4723 46.0399C49.5783 44.0803 49.6862 42.1203 49.7977 40.1611C49.887 38.5874 49.9819 37.0136 50.0811 35.3304C49.3399 35.3304 48.6738 35.3651 48.0132 35.3185C47.5361 35.2849 47.2898 35.4746 47.0562 35.8676C45.5366 38.4245 43.9798 40.9593 42.4724 43.5229C42.2523 43.8977 42.0831 44.4088 42.1416 44.8211C42.3507 46.2953 42.5325 47.7971 42.9812 49.2068C43.456 50.6987 44.2154 52.1017 44.8665 53.5359C45.1883 54.2447 45.2096 54.9342 44.8625 55.6374C44.657 56.0541 44.4558 56.4751 44.2885 56.908C44.0264 57.5859 44.2249 58.0706 44.9349 58.1872C45.7449 58.3204 46.583 58.3461 47.406 58.3216C48.8679 58.2781 50.314 58.0876 51.6446 57.4136C52.9515 56.7514 53.3378 55.7619 52.7029 54.4578C52.1372 53.2979 51.4616 52.1914 50.833 51.062Z" fill="white"/>
<path d="M71.2134 43.0624C70.8291 41.6479 69.9076 40.6043 68.4347 40.1833C67.8935 40.0287 67.3325 39.9319 66.7743 39.8492C65.8576 39.7133 65.8548 39.7271 65.5528 40.6284C65.4757 40.8581 65.3979 41.0878 65.331 41.3202C64.4123 44.5247 64.0862 47.8196 63.8763 51.1277C63.7593 52.975 63.6043 54.7448 62.2345 56.2332C61.2233 57.3318 61.5016 58.0307 62.9722 58.3141C64.1933 58.5494 65.4532 58.5865 66.5727 58.6988C68.0817 58.575 69.4578 58.5201 70.8157 58.3339C72.1167 58.1556 72.4005 57.5868 71.8724 56.4202C71.5743 55.762 71.5134 55.1085 71.6917 54.4155C71.9779 53.3019 72.2586 52.1871 72.5262 51.0688C72.6337 50.6205 72.8492 50.1319 72.7618 49.7144C72.2969 47.486 71.8095 45.2588 71.2134 43.0624Z" fill="white"/>
</svg>
