<?xml version="1.0" encoding="iso-8859-1"?>
<!-- Generator: Adobe Illustrator 24.1.0, SVG Export Plug-In . SVG Version: 6.00 Build 0)  -->
<svg version="1.1" id="Calque_1" xmlns="http://www.w3.org/2000/svg" xmlns:xlink="http://www.w3.org/1999/xlink" x="0px" y="0px"
	 width="95.67px" height="60px" fillColor="white" viewBox="0 0 288 288" enable-background="new 0 0 288 288" xml:space="preserve">
<g>
	<path d="M262.683,188.754c-4.59-11.284-7.307-23.083-9.32-35.042c-1.892-11.237-3.412-22.537-5.307-33.774
		c-1.039-6.162-2.733-12.202-5.945-17.642c-4.177-7.075-10.405-12.132-17.373-16.152c-12.988-7.492-27.173-12.032-41.546-16.002
		c-8.639-2.387-17.355-2.777-26.097-0.585c-5.701,1.429-11.378,2.957-17.059,4.468c-3.632,0.966-7.314,1.785-11.066,1.246
		c-4.751-0.682-9.475-1.584-14.186-2.514c-6.508-1.285-12.887-3.396-19.657-2.897c-6.716,0.495-12.225,2.967-15.747,9.095
		c-1.78,3.097-3.955,5.964-5.892,8.974c-0.797,1.238-1.69,2.502-2.104,3.884c-1.74,5.821-3.374,11.676-4.935,17.548
		c-1.496,5.629-2.631,11.369-5.353,16.595c-3.082,5.918-7.046,10.313-14.64,9.727c-6.235-0.481-12.28-4.908-13.6-11.029
		c-1.819-8.434,0.945-15.453,7.421-20.97c2.4-2.045,5.282-3.102,8.578-2.142c1.158,0.337,1.948-0.496,1.644-1.772
		c-0.157-0.659-0.572-1.324-1.039-1.83c-3.15-3.414-7.254-4.162-11.055-1.472c-10.35,7.323-15.98,17.251-15.358,30.143
		c0.493,10.237,5.97,17.167,15.232,21.169c7.36,3.18,15.13,3.227,22.948,2.595c1.642-0.133,3.277-0.348,4.916-0.526
		c0.051,0.132,0.101,0.265,0.152,0.397c-1.117,1.015-2.234,2.031-3.474,3.159c2.725,1.166,6.139,1.323,8.606-0.049
		c2.209-1.229,4.309-2.754,6.195-4.441c3.667-3.279,6.355-7.37,8.598-11.701c1.124-2.169,2.648-3.58,4.939-4.229
		c2.259-0.64,4.514-1.308,6.798-1.849c2.214-0.525,4.613-1.596,6.654-1.154c2.076,0.45,3.815,2.453,5.701,3.778
		c0.125,0.088,0.298,0.158,0.359,0.281c0.231,0.471,0.602,0.961,0.599,1.441c-0.008,1.223-0.107,2.459-0.313,3.666
		c-1.635,9.568-3.353,19.123-4.948,28.698c-1.738,10.432-3.593,20.852-4.983,31.332c-1.178,8.882-0.526,8.018-6.761,14.004
		c-1.015,0.975-2.427,1.914-2.063,3.527c0.41,1.819,2.206,2.078,3.719,2.536c0.194,0.059,0.399,0.104,0.601,0.116
		c3.42,0.192,6.841,0.505,10.262,0.516c1.97,0.006,4-0.268,5.897-0.796c2.691-0.75,3.583-2.929,2.591-5.551
		c-0.181-0.478-0.352-0.961-0.565-1.425c-0.644-1.399-0.51-2.712,0.109-4.127c1.352-3.089,2.682-6.197,3.809-9.373
		c5.405-15.229,12.846-29.421,21.717-42.889c0.344-0.523,1.084-1.151,1.612-1.127c2.949,0.135,6.068-0.08,8.794,0.828
		c5.267,1.754,10.372,4.044,15.431,6.359c5.704,2.611,11.482,4.492,17.882,4.175c3.465-0.172,6.979-0.074,10.429,0.294
		c5.901,0.63,10.145,3.592,11.891,9.521c0.562,1.908,1.162,3.814,1.577,5.756c1.132,5.296,1.82,10.745,4.386,15.593
		c2.1,3.966,4.553,7.749,6.926,11.566c1.458,2.346,1.522,3.132-0.021,5.443c-0.227,0.341-0.477,0.666-0.719,0.997
		c-1.684,2.297-1.058,3.951,1.847,4.262c3.199,0.342,6.45,0.643,9.645,0.442c2.972-0.187,5.974-0.822,8.826-1.701
		c2.347-0.724,2.596-1.682,2.003-4.051c-1.115-4.462-2.307-8.906-3.368-13.381c-1.798-7.585-3.332-15.267-2.576-23.074
		c0.504-5.208,1.764-10.363,2.943-15.483c1.984-8.618,4.19-17.186,4.911-26.038c0.096-1.175,0.168-2.353,0.251-3.529
		c0.423,0.308,0.547,0.618,0.616,0.94c1.955,9.139,3.705,18.328,5.906,27.407c2.459,10.144,6.368,19.749,12.086,28.547
		c1.067,1.641,2.252,3.205,3.383,4.805C264.361,192.33,263.426,190.581,262.683,188.754z"/>
	<path d="M151.587,197.28c-2.199-3.951-3.691-8.094-3.442-12.704c0.268-4.957,0.541-9.915,0.823-14.871
		c0.226-3.981,0.466-7.962,0.717-12.22c-1.875,0-3.56,0.088-5.231-0.03c-1.207-0.085-1.83,0.395-2.421,1.389
		c-3.844,6.468-7.782,12.88-11.595,19.365c-0.557,0.948-0.985,2.241-0.837,3.284c0.529,3.729,0.989,7.528,2.124,11.094
		c1.201,3.774,3.122,7.323,4.769,10.951c0.814,1.793,0.868,3.537-0.01,5.316c-0.52,1.054-1.029,2.119-1.452,3.214
		c-0.663,1.715-0.161,2.941,1.635,3.236c2.049,0.337,4.169,0.402,6.251,0.34c3.698-0.11,7.356-0.592,10.722-2.297
		c3.306-1.675,4.283-4.178,2.677-7.477C154.886,202.936,153.177,200.137,151.587,197.28z"/>
	<path d="M203.142,177.044c-0.972-3.578-3.303-6.218-7.029-7.283c-1.369-0.391-2.788-0.636-4.2-0.845
		c-2.319-0.344-2.326-0.309-3.09,1.971c-0.195,0.581-0.392,1.162-0.561,1.75c-2.324,8.106-3.149,16.441-3.68,24.809
		c-0.296,4.673-0.688,9.15-4.153,12.915c-2.558,2.779-1.854,4.547,1.866,5.264c3.089,0.595,6.276,0.689,9.108,0.973
		c3.817-0.313,7.298-0.452,10.733-0.923c3.291-0.451,4.009-1.89,2.673-4.841c-0.754-1.665-0.908-3.318-0.457-5.071
		c0.724-2.817,1.434-5.637,2.111-8.466c0.272-1.134,0.817-2.37,0.596-3.426C205.883,188.234,204.65,182.6,203.142,177.044z"/>
</g>
</svg>
